<svg version="1.1" xmlns="http://www.w3.org/2000/svg" xmlns:xlink="http://www.w3.org/1999/xlink" width="863" height="475"><defs/><g><text fill="#eeeeee" stroke="none" font-family="Arial" font-size="24px" font-style="normal" font-weight="normal" text-decoration="none" x="0" y="0">UNREGISTERED</text><text fill="#eeeeee" stroke="none" font-family="Arial" font-size="24px" font-style="normal" font-weight="normal" text-decoration="none" x="0" y="30">UNREGISTERED</text><text fill="#eeeeee" stroke="none" font-family="Arial" font-size="24px" font-style="normal" font-weight="normal" text-decoration="none" x="0" y="60">UNREGISTERED</text><text fill="#eeeeee" stroke="none" font-family="Arial" font-size="24px" font-style="normal" font-weight="normal" text-decoration="none" x="0" y="90">UNREGISTERED</text><text fill="#eeeeee" stroke="none" font-family="Arial" font-size="24px" font-style="normal" font-weight="normal" text-decoration="none" x="0" y="120">UNREGISTERED</text><text fill="#eeeeee" stroke="none" font-family="Arial" font-size="24px" font-style="normal" font-weight="normal" text-decoration="none" x="0" y="150">UNREGISTERED</text><text fill="#eeeeee" stroke="none" font-family="Arial" font-size="24px" font-style="normal" font-weight="normal" text-decoration="none" x="0" y="180">UNREGISTERED</text><text fill="#eeeeee" stroke="none" font-family="Arial" font-size="24px" font-style="normal" font-weight="normal" text-decoration="none" x="0" y="210">UNREGISTERED</text><text fill="#eeeeee" stroke="none" font-family="Arial" font-size="24px" font-style="normal" font-weight="normal" text-decoration="none" x="0" y="240">UNREGISTERED</text><text fill="#eeeeee" stroke="none" font-family="Arial" font-size="24px" font-style="normal" font-weight="normal" text-decoration="none" x="0" y="270">UNREGISTERED</text><text fill="#eeeeee" stroke="none" font-family="Arial" font-size="24px" font-style="normal" font-weight="normal" text-decoration="none" x="0" y="300">UNREGISTERED</text><text fill="#eeeeee" stroke="none" font-family="Arial" font-size="24px" font-style="normal" font-weight="normal" text-decoration="none" x="0" y="330">UNREGISTERED</text><text fill="#eeeeee" stroke="none" font-family="Arial" font-size="24px" font-style="normal" font-weight="normal" text-decoration="none" x="0" y="360">UNREGISTERED</text><text fill="#eeeeee" stroke="none" font-family="Arial" font-size="24px" font-style="normal" font-weight="normal" text-decoration="none" x="0" y="390">UNREGISTERED</text><text fill="#eeeeee" stroke="none" font-family="Arial" font-size="24px" font-style="normal" font-weight="normal" text-decoration="none" x="0" y="420">UNREGISTERED</text><text fill="#eeeeee" stroke="none" font-family="Arial" font-size="24px" font-style="normal" font-weight="normal" text-decoration="none" x="0" y="450">UNREGISTERED</text><text fill="#eeeeee" stroke="none" font-family="Arial" font-size="24px" font-style="normal" font-weight="normal" text-decoration="none" x="200" y="0">UNREGISTERED</text><text fill="#eeeeee" stroke="none" font-family="Arial" font-size="24px" font-style="normal" font-weight="normal" text-decoration="none" x="200" y="30">UNREGISTERED</text><text fill="#eeeeee" stroke="none" font-family="Arial" font-size="24px" font-style="normal" font-weight="normal" text-decoration="none" x="200" y="60">UNREGISTERED</text><text fill="#eeeeee" stroke="none" font-family="Arial" font-size="24px" font-style="normal" font-weight="normal" text-decoration="none" x="200" y="90">UNREGISTERED</text><text fill="#eeeeee" stroke="none" font-family="Arial" font-size="24px" font-style="normal" font-weight="normal" text-decoration="none" x="200" y="120">UNREGISTERED</text><text fill="#eeeeee" stroke="none" font-family="Arial" font-size="24px" font-style="normal" font-weight="normal" text-decoration="none" x="200" y="150">UNREGISTERED</text><text fill="#eeeeee" stroke="none" font-family="Arial" font-size="24px" font-style="normal" font-weight="normal" text-decoration="none" x="200" y="180">UNREGISTERED</text><text fill="#eeeeee" stroke="none" font-family="Arial" font-size="24px" font-style="normal" font-weight="normal" text-decoration="none" x="200" y="210">UNREGISTERED</text><text fill="#eeeeee" stroke="none" font-family="Arial" font-size="24px" font-style="normal" font-weight="normal" text-decoration="none" x="200" y="240">UNREGISTERED</text><text fill="#eeeeee" stroke="none" font-family="Arial" font-size="24px" font-style="normal" font-weight="normal" text-decoration="none" x="200" y="270">UNREGISTERED</text><text fill="#eeeeee" stroke="none" font-family="Arial" font-size="24px" font-style="normal" font-weight="normal" text-decoration="none" x="200" y="300">UNREGISTERED</text><text fill="#eeeeee" stroke="none" font-family="Arial" font-size="24px" font-style="normal" font-weight="normal" text-decoration="none" x="200" y="330">UNREGISTERED</text><text fill="#eeeeee" stroke="none" font-family="Arial" font-size="24px" font-style="normal" font-weight="normal" text-decoration="none" x="200" y="360">UNREGISTERED</text><text fill="#eeeeee" stroke="none" font-family="Arial" font-size="24px" font-style="normal" font-weight="normal" text-decoration="none" x="200" y="390">UNREGISTERED</text><text fill="#eeeeee" stroke="none" font-family="Arial" font-size="24px" font-style="normal" font-weight="normal" text-decoration="none" x="200" y="420">UNREGISTERED</text><text fill="#eeeeee" stroke="none" font-family="Arial" font-size="24px" font-style="normal" font-weight="normal" text-decoration="none" x="200" y="450">UNREGISTERED</text><text fill="#eeeeee" stroke="none" font-family="Arial" font-size="24px" font-style="normal" font-weight="normal" text-decoration="none" x="400" y="0">UNREGISTERED</text><text fill="#eeeeee" stroke="none" font-family="Arial" font-size="24px" font-style="normal" font-weight="normal" text-decoration="none" x="400" y="30">UNREGISTERED</text><text fill="#eeeeee" stroke="none" font-family="Arial" font-size="24px" font-style="normal" font-weight="normal" text-decoration="none" x="400" y="60">UNREGISTERED</text><text fill="#eeeeee" stroke="none" font-family="Arial" font-size="24px" font-style="normal" font-weight="normal" text-decoration="none" x="400" y="90">UNREGISTERED</text><text fill="#eeeeee" stroke="none" font-family="Arial" font-size="24px" font-style="normal" font-weight="normal" text-decoration="none" x="400" y="120">UNREGISTERED</text><text fill="#eeeeee" stroke="none" font-family="Arial" font-size="24px" font-style="normal" font-weight="normal" text-decoration="none" x="400" y="150">UNREGISTERED</text><text fill="#eeeeee" stroke="none" font-family="Arial" font-size="24px" font-style="normal" font-weight="normal" text-decoration="none" x="400" y="180">UNREGISTERED</text><text fill="#eeeeee" stroke="none" font-family="Arial" font-size="24px" font-style="normal" font-weight="normal" text-decoration="none" x="400" y="210">UNREGISTERED</text><text fill="#eeeeee" stroke="none" font-family="Arial" font-size="24px" font-style="normal" font-weight="normal" text-decoration="none" x="400" y="240">UNREGISTERED</text><text fill="#eeeeee" stroke="none" font-family="Arial" font-size="24px" font-style="normal" font-weight="normal" text-decoration="none" x="400" y="270">UNREGISTERED</text><text fill="#eeeeee" stroke="none" font-family="Arial" font-size="24px" font-style="normal" font-weight="normal" text-decoration="none" x="400" y="300">UNREGISTERED</text><text fill="#eeeeee" stroke="none" font-family="Arial" font-size="24px" font-style="normal" font-weight="normal" text-decoration="none" x="400" y="330">UNREGISTERED</text><text fill="#eeeeee" stroke="none" font-family="Arial" font-size="24px" font-style="normal" font-weight="normal" text-decoration="none" x="400" y="360">UNREGISTERED</text><text fill="#eeeeee" stroke="none" font-family="Arial" font-size="24px" font-style="normal" font-weight="normal" text-decoration="none" x="400" y="390">UNREGISTERED</text><text fill="#eeeeee" stroke="none" font-family="Arial" font-size="24px" font-style="normal" font-weight="normal" text-decoration="none" x="400" y="420">UNREGISTERED</text><text fill="#eeeeee" stroke="none" font-family="Arial" font-size="24px" font-style="normal" font-weight="normal" text-decoration="none" x="400" y="450">UNREGISTERED</text><text fill="#eeeeee" stroke="none" font-family="Arial" font-size="24px" font-style="normal" font-weight="normal" text-decoration="none" x="600" y="0">UNREGISTERED</text><text fill="#eeeeee" stroke="none" font-family="Arial" font-size="24px" font-style="normal" font-weight="normal" text-decoration="none" x="600" y="30">UNREGISTERED</text><text fill="#eeeeee" stroke="none" font-family="Arial" font-size="24px" font-style="normal" font-weight="normal" text-decoration="none" x="600" y="60">UNREGISTERED</text><text fill="#eeeeee" stroke="none" font-family="Arial" font-size="24px" font-style="normal" font-weight="normal" text-decoration="none" x="600" y="90">UNREGISTERED</text><text fill="#eeeeee" stroke="none" font-family="Arial" font-size="24px" font-style="normal" font-weight="normal" text-decoration="none" x="600" y="120">UNREGISTERED</text><text fill="#eeeeee" stroke="none" font-family="Arial" font-size="24px" font-style="normal" font-weight="normal" text-decoration="none" x="600" y="150">UNREGISTERED</text><text fill="#eeeeee" stroke="none" font-family="Arial" font-size="24px" font-style="normal" font-weight="normal" text-decoration="none" x="600" y="180">UNREGISTERED</text><text fill="#eeeeee" stroke="none" font-family="Arial" font-size="24px" font-style="normal" font-weight="normal" text-decoration="none" x="600" y="210">UNREGISTERED</text><text fill="#eeeeee" stroke="none" font-family="Arial" font-size="24px" font-style="normal" font-weight="normal" text-decoration="none" x="600" y="240">UNREGISTERED</text><text fill="#eeeeee" stroke="none" font-family="Arial" font-size="24px" font-style="normal" font-weight="normal" text-decoration="none" x="600" y="270">UNREGISTERED</text><text fill="#eeeeee" stroke="none" font-family="Arial" font-size="24px" font-style="normal" font-weight="normal" text-decoration="none" x="600" y="300">UNREGISTERED</text><text fill="#eeeeee" stroke="none" font-family="Arial" font-size="24px" font-style="normal" font-weight="normal" text-decoration="none" x="600" y="330">UNREGISTERED</text><text fill="#eeeeee" stroke="none" font-family="Arial" font-size="24px" font-style="normal" font-weight="normal" text-decoration="none" x="600" y="360">UNREGISTERED</text><text fill="#eeeeee" stroke="none" font-family="Arial" font-size="24px" font-style="normal" font-weight="normal" text-decoration="none" x="600" y="390">UNREGISTERED</text><text fill="#eeeeee" stroke="none" font-family="Arial" font-size="24px" font-style="normal" font-weight="normal" text-decoration="none" x="600" y="420">UNREGISTERED</text><text fill="#eeeeee" stroke="none" font-family="Arial" font-size="24px" font-style="normal" font-weight="normal" text-decoration="none" x="600" y="450">UNREGISTERED</text><text fill="#eeeeee" stroke="none" font-family="Arial" font-size="24px" font-style="normal" font-weight="normal" text-decoration="none" x="800" y="0">UNREGISTERED</text><text fill="#eeeeee" stroke="none" font-family="Arial" font-size="24px" font-style="normal" font-weight="normal" text-decoration="none" x="800" y="30">UNREGISTERED</text><text fill="#eeeeee" stroke="none" font-family="Arial" font-size="24px" font-style="normal" font-weight="normal" text-decoration="none" x="800" y="60">UNREGISTERED</text><text fill="#eeeeee" stroke="none" font-family="Arial" font-size="24px" font-style="normal" font-weight="normal" text-decoration="none" x="800" y="90">UNREGISTERED</text><text fill="#eeeeee" stroke="none" font-family="Arial" font-size="24px" font-style="normal" font-weight="normal" text-decoration="none" x="800" y="120">UNREGISTERED</text><text fill="#eeeeee" stroke="none" font-family="Arial" font-size="24px" font-style="normal" font-weight="normal" text-decoration="none" x="800" y="150">UNREGISTERED</text><text fill="#eeeeee" stroke="none" font-family="Arial" font-size="24px" font-style="normal" font-weight="normal" text-decoration="none" x="800" y="180">UNREGISTERED</text><text fill="#eeeeee" stroke="none" font-family="Arial" font-size="24px" font-style="normal" font-weight="normal" text-decoration="none" x="800" y="210">UNREGISTERED</text><text fill="#eeeeee" stroke="none" font-family="Arial" font-size="24px" font-style="normal" font-weight="normal" text-decoration="none" x="800" y="240">UNREGISTERED</text><text fill="#eeeeee" stroke="none" font-family="Arial" font-size="24px" font-style="normal" font-weight="normal" text-decoration="none" x="800" y="270">UNREGISTERED</text><text fill="#eeeeee" stroke="none" font-family="Arial" font-size="24px" font-style="normal" font-weight="normal" text-decoration="none" x="800" y="300">UNREGISTERED</text><text fill="#eeeeee" stroke="none" font-family="Arial" font-size="24px" font-style="normal" font-weight="normal" text-decoration="none" x="800" y="330">UNREGISTERED</text><text fill="#eeeeee" stroke="none" font-family="Arial" font-size="24px" font-style="normal" font-weight="normal" text-decoration="none" x="800" y="360">UNREGISTERED</text><text fill="#eeeeee" stroke="none" font-family="Arial" font-size="24px" font-style="normal" font-weight="normal" text-decoration="none" x="800" y="390">UNREGISTERED</text><text fill="#eeeeee" stroke="none" font-family="Arial" font-size="24px" font-style="normal" font-weight="normal" text-decoration="none" x="800" y="420">UNREGISTERED</text><text fill="#eeeeee" stroke="none" font-family="Arial" font-size="24px" font-style="normal" font-weight="normal" text-decoration="none" x="800" y="450">UNREGISTERED</text><g transform="translate(-22,-54) scale(1,1)"><rect fill="#C0C0C0" stroke="none" x="39" y="71" width="189.13232421875" height="175" opacity="0.2"/></g><g transform="translate(-22,-54) scale(1,1)"><rect fill="#ffffff" stroke="none" x="32" y="64" width="189.13232421875" height="175"/></g><g transform="translate(-22,-54) scale(1,1)"><path fill="none" stroke="#000000" d="M 32 64 L 221.13232421875 64 L 221.13232421875 239 L 32 239 L 32 64 Z Z" stroke-miterlimit="10"/></g><g transform="translate(-22,-54) scale(1,1)"><path fill="none" stroke="#000000" d="M 32 87 L 221.13232421875 87" stroke-miterlimit="10"/></g><g transform="translate(-22,-54) scale(1,1)"><path fill="none" stroke="#000000" d="M 60.05908203125 87 L 60.05908203125 239" stroke-miterlimit="10"/></g><g transform="translate(-22,-54) scale(1,1)"><path fill="none" stroke="#000000" d="M 124.97900390625 87 L 124.97900390625 239" stroke-miterlimit="10"/></g><g transform="translate(-22,-54) scale(1,1)"><g><path fill="none" stroke="none"/><text fill="#000000" stroke="none" font-family="Arial" font-size="13px" font-style="normal" font-weight="bold" text-decoration="none" x="115.007080078125" y="81.5">Bird</text></g></g><g transform="translate(-22,-54) scale(1,1)"><g><path fill="none" stroke="none"/><text fill="#000000" stroke="none" font-family="Arial" font-size="13px" font-style="normal" font-weight="normal" text-decoration="none" x="37" y="105">PK</text></g></g><g transform="translate(-22,-54) scale(1,1)"><g><path fill="none" stroke="none"/><text fill="#000000" stroke="none" font-family="Arial" font-size="13px" font-style="normal" font-weight="normal" text-decoration="none" x="65.05908203125" y="105">Id</text></g></g><g transform="translate(-22,-54) scale(1,1)"><g><path fill="none" stroke="none"/><text fill="#000000" stroke="none" font-family="Arial" font-size="13px" font-style="normal" font-weight="normal" text-decoration="none" x="129.97900390625" y="105">INTEGER</text></g></g><g transform="translate(-22,-54) scale(1,1)"><g><path fill="none" stroke="none"/><text fill="#000000" stroke="none" font-family="Arial" font-size="13px" font-style="normal" font-weight="normal" text-decoration="none" x="37" y="104.5"></text></g></g><g transform="translate(-22,-54) scale(1,1)"><g><path fill="none" stroke="none"/><text fill="#000000" stroke="none" font-family="Arial" font-size="13px" font-style="normal" font-weight="normal" text-decoration="none" x="37" y="120"></text></g></g><g transform="translate(-22,-54) scale(1,1)"><g><path fill="none" stroke="none"/><text fill="#000000" stroke="none" font-family="Arial" font-size="13px" font-style="normal" font-weight="normal" text-decoration="none" x="65.05908203125" y="120">Name</text></g></g><g transform="translate(-22,-54) scale(1,1)"><g><path fill="none" stroke="none"/><text fill="#000000" stroke="none" font-family="Arial" font-size="13px" font-style="normal" font-weight="normal" text-decoration="none" x="129.97900390625" y="120">VARCHAR(50)</text></g></g><g transform="translate(-22,-54) scale(1,1)"><g><path fill="none" stroke="none"/><text fill="#000000" stroke="none" font-family="Arial" font-size="13px" font-style="normal" font-weight="normal" text-decoration="none" x="37" y="119.5"></text></g></g><g transform="translate(-22,-54) scale(1,1)"><g><path fill="none" stroke="none"/><text fill="#000000" stroke="none" font-family="Arial" font-size="13px" font-style="normal" font-weight="normal" text-decoration="none" x="37" y="135"></text></g></g><g transform="translate(-22,-54) scale(1,1)"><g><path fill="none" stroke="none"/><text fill="#000000" stroke="none" font-family="Arial" font-size="13px" font-style="normal" font-weight="normal" text-decoration="none" x="65.05908203125" y="135">SciName</text></g></g><g transform="translate(-22,-54) scale(1,1)"><g><path fill="none" stroke="none"/><text fill="#000000" stroke="none" font-family="Arial" font-size="13px" font-style="normal" font-weight="normal" text-decoration="none" x="129.97900390625" y="135">VARCHAR(50)</text></g></g><g transform="translate(-22,-54) scale(1,1)"><g><path fill="none" stroke="none"/><text fill="#000000" stroke="none" font-family="Arial" font-size="13px" font-style="normal" font-weight="normal" text-decoration="none" x="37" y="134.5"></text></g></g><g transform="translate(-22,-54) scale(1,1)"><g><path fill="none" stroke="none"/><text fill="#000000" stroke="none" font-family="Arial" font-size="13px" font-style="normal" font-weight="normal" text-decoration="none" x="37" y="150">FK</text></g></g><g transform="translate(-22,-54) scale(1,1)"><g><path fill="none" stroke="none"/><text fill="#000000" stroke="none" font-family="Arial" font-size="13px" font-style="normal" font-weight="normal" text-decoration="none" x="65.05908203125" y="150">FamilyId</text></g></g><g transform="translate(-22,-54) scale(1,1)"><g><path fill="none" stroke="none"/><text fill="#000000" stroke="none" font-family="Arial" font-size="13px" font-style="normal" font-weight="normal" text-decoration="none" x="129.97900390625" y="150">INTEGER</text></g></g><g transform="translate(-22,-54) scale(1,1)"><g><path fill="none" stroke="none"/><text fill="#000000" stroke="none" font-family="Arial" font-size="13px" font-style="normal" font-weight="normal" text-decoration="none" x="37" y="149.5"></text></g></g><g transform="translate(-22,-54) scale(1,1)"><rect fill="#C0C0C0" stroke="none" x="575" y="71" width="210.05419921875" height="191" opacity="0.2"/></g><g transform="translate(-22,-54) scale(1,1)"><rect fill="#ffffff" stroke="none" x="568" y="64" width="210.05419921875" height="191"/></g><g transform="translate(-22,-54) scale(1,1)"><path fill="none" stroke="#000000" d="M 568 64 L 778.05419921875 64 L 778.05419921875 255 L 568 255 L 568 64 Z Z" stroke-miterlimit="10"/></g><g transform="translate(-22,-54) scale(1,1)"><path fill="none" stroke="#000000" d="M 568 87 L 778.05419921875 87" stroke-miterlimit="10"/></g><g transform="translate(-22,-54) scale(1,1)"><path fill="none" stroke="#000000" d="M 596.05908203125 87 L 596.05908203125 255" stroke-miterlimit="10"/></g><g transform="translate(-22,-54) scale(1,1)"><path fill="none" stroke="#000000" d="M 674.6708984375 87 L 674.6708984375 255" stroke-miterlimit="10"/></g><g transform="translate(-22,-54) scale(1,1)"><g><path fill="none" stroke="none"/><text fill="#000000" stroke="none" font-family="Arial" font-size="13px" font-style="normal" font-weight="bold" text-decoration="none" x="654.961669921875" y="81.5">Image</text></g></g><g transform="translate(-22,-54) scale(1,1)"><g><path fill="none" stroke="none"/><text fill="#000000" stroke="none" font-family="Arial" font-size="13px" font-style="normal" font-weight="normal" text-decoration="none" x="573" y="105">PK</text></g></g><g transform="translate(-22,-54) scale(1,1)"><g><path fill="none" stroke="none"/><text fill="#000000" stroke="none" font-family="Arial" font-size="13px" font-style="normal" font-weight="normal" text-decoration="none" x="601.05908203125" y="105">Id</text></g></g><g transform="translate(-22,-54) scale(1,1)"><g><path fill="none" stroke="none"/><text fill="#000000" stroke="none" font-family="Arial" font-size="13px" font-style="normal" font-weight="normal" text-decoration="none" x="679.6708984375" y="105">INTEGER</text></g></g><g transform="translate(-22,-54) scale(1,1)"><g><path fill="none" stroke="none"/><text fill="#000000" stroke="none" font-family="Arial" font-size="13px" font-style="normal" font-weight="normal" text-decoration="none" x="573" y="104.5"></text></g></g><g transform="translate(-22,-54) scale(1,1)"><g><path fill="none" stroke="none"/><text fill="#000000" stroke="none" font-family="Arial" font-size="13px" font-style="normal" font-weight="normal" text-decoration="none" x="573" y="120">FK</text></g></g><g transform="translate(-22,-54) scale(1,1)"><g><path fill="none" stroke="none"/><text fill="#000000" stroke="none" font-family="Arial" font-size="13px" font-style="normal" font-weight="normal" text-decoration="none" x="601.05908203125" y="120">BirdId</text></g></g><g transform="translate(-22,-54) scale(1,1)"><g><path fill="none" stroke="none"/><text fill="#000000" stroke="none" font-family="Arial" font-size="13px" font-style="normal" font-weight="normal" text-decoration="none" x="679.6708984375" y="120">INTEGER</text></g></g><g transform="translate(-22,-54) scale(1,1)"><g><path fill="none" stroke="none"/><text fill="#000000" stroke="none" font-family="Arial" font-size="13px" font-style="normal" font-weight="normal" text-decoration="none" x="573" y="119.5"></text></g></g><g transform="translate(-22,-54) scale(1,1)"><g><path fill="none" stroke="none"/><text fill="#000000" stroke="none" font-family="Arial" font-size="13px" font-style="normal" font-weight="normal" text-decoration="none" x="573" y="135"></text></g></g><g transform="translate(-22,-54) scale(1,1)"><g><path fill="none" stroke="none"/><text fill="#000000" stroke="none" font-family="Arial" font-size="13px" font-style="normal" font-weight="normal" text-decoration="none" x="601.05908203125" y="135">File</text></g></g><g transform="translate(-22,-54) scale(1,1)"><g><path fill="none" stroke="none"/><text fill="#000000" stroke="none" font-family="Arial" font-size="13px" font-style="normal" font-weight="normal" text-decoration="none" x="679.6708984375" y="135">VARCHAR(50)</text></g></g><g transform="translate(-22,-54) scale(1,1)"><g><path fill="none" stroke="none"/><text fill="#000000" stroke="none" font-family="Arial" font-size="13px" font-style="normal" font-weight="normal" text-decoration="none" x="573" y="134.5"></text></g></g><g transform="translate(-22,-54) scale(1,1)"><g><path fill="none" stroke="none"/><text fill="#000000" stroke="none" font-family="Arial" font-size="13px" font-style="normal" font-weight="normal" text-decoration="none" x="573" y="150"></text></g></g><g transform="translate(-22,-54) scale(1,1)"><g><path fill="none" stroke="none"/><text fill="#000000" stroke="none" font-family="Arial" font-size="13px" font-style="normal" font-weight="normal" text-decoration="none" x="601.05908203125" y="150">Location</text></g></g><g transform="translate(-22,-54) scale(1,1)"><g><path fill="none" stroke="none"/><text fill="#000000" stroke="none" font-family="Arial" font-size="13px" font-style="normal" font-weight="normal" text-decoration="none" x="679.6708984375" y="150">VARCHAR(200)</text></g></g><g transform="translate(-22,-54) scale(1,1)"><g><path fill="none" stroke="none"/><text fill="#000000" stroke="none" font-family="Arial" font-size="13px" font-style="normal" font-weight="normal" text-decoration="none" x="573" y="149.5"></text></g></g><g transform="translate(-22,-54) scale(1,1)"><g><path fill="none" stroke="none"/><text fill="#000000" stroke="none" font-family="Arial" font-size="13px" font-style="normal" font-weight="normal" text-decoration="none" x="573" y="165"></text></g></g><g transform="translate(-22,-54) scale(1,1)"><g><path fill="none" stroke="none"/><text fill="#000000" stroke="none" font-family="Arial" font-size="13px" font-style="normal" font-weight="normal" text-decoration="none" x="601.05908203125" y="165">Date</text></g></g><g transform="translate(-22,-54) scale(1,1)"><g><path fill="none" stroke="none"/><text fill="#000000" stroke="none" font-family="Arial" font-size="13px" font-style="normal" font-weight="normal" text-decoration="none" x="679.6708984375" y="165">DATE</text></g></g><g transform="translate(-22,-54) scale(1,1)"><g><path fill="none" stroke="none"/><text fill="#000000" stroke="none" font-family="Arial" font-size="13px" font-style="normal" font-weight="normal" text-decoration="none" x="573" y="164.5"></text></g></g><g transform="translate(-22,-54) scale(1,1)"><g><path fill="none" stroke="none"/><text fill="#000000" stroke="none" font-family="Arial" font-size="13px" font-style="normal" font-weight="normal" text-decoration="none" x="573" y="180"></text></g></g><g transform="translate(-22,-54) scale(1,1)"><g><path fill="none" stroke="none"/><text fill="#000000" stroke="none" font-family="Arial" font-size="13px" font-style="normal" font-weight="normal" text-decoration="none" x="601.05908203125" y="180">Country</text></g></g><g transform="translate(-22,-54) scale(1,1)"><g><path fill="none" stroke="none"/><text fill="#000000" stroke="none" font-family="Arial" font-size="13px" font-style="normal" font-weight="normal" text-decoration="none" x="679.6708984375" y="180">INTEGER</text></g></g><g transform="translate(-22,-54) scale(1,1)"><g><path fill="none" stroke="none"/><text fill="#000000" stroke="none" font-family="Arial" font-size="13px" font-style="normal" font-weight="normal" text-decoration="none" x="573" y="179.5"></text></g></g><g transform="translate(-22,-54) scale(1,1)"><g><path fill="none" stroke="none"/><text fill="#000000" stroke="none" font-family="Arial" font-size="13px" font-style="normal" font-weight="normal" text-decoration="none" x="573" y="195"></text></g></g><g transform="translate(-22,-54) scale(1,1)"><g><path fill="none" stroke="none"/><text fill="#000000" stroke="none" font-family="Arial" font-size="13px" font-style="normal" font-weight="normal" text-decoration="none" x="601.05908203125" y="195">Coordinate</text></g></g><g transform="translate(-22,-54) scale(1,1)"><g><path fill="none" stroke="none"/><text fill="#000000" stroke="none" font-family="Arial" font-size="13px" font-style="normal" font-weight="normal" text-decoration="none" x="679.6708984375" y="195">NUMERIC</text></g></g><g transform="translate(-22,-54) scale(1,1)"><g><path fill="none" stroke="none"/><text fill="#000000" stroke="none" font-family="Arial" font-size="13px" font-style="normal" font-weight="normal" text-decoration="none" x="573" y="194.5"></text></g></g><g transform="translate(-22,-54) scale(1,1)"><rect fill="#C0C0C0" stroke="none" x="207" y="327" width="189.13232421875" height="199" opacity="0.2"/></g><g transform="translate(-22,-54) scale(1,1)"><rect fill="#ffffff" stroke="none" x="200" y="320" width="189.13232421875" height="199"/></g><g transform="translate(-22,-54) scale(1,1)"><path fill="none" stroke="#000000" d="M 200 320 L 389.13232421875 320 L 389.13232421875 519 L 200 519 L 200 320 Z Z" stroke-miterlimit="10"/></g><g transform="translate(-22,-54) scale(1,1)"><path fill="none" stroke="#000000" d="M 200 343 L 389.13232421875 343" stroke-miterlimit="10"/></g><g transform="translate(-22,-54) scale(1,1)"><path fill="none" stroke="#000000" d="M 228.05908203125 343 L 228.05908203125 519" stroke-miterlimit="10"/></g><g transform="translate(-22,-54) scale(1,1)"><path fill="none" stroke="#000000" d="M 292.97900390625 343 L 292.97900390625 519" stroke-miterlimit="10"/></g><g transform="translate(-22,-54) scale(1,1)"><g><path fill="none" stroke="none"/><text fill="#000000" stroke="none" font-family="Arial" font-size="13px" font-style="normal" font-weight="bold" text-decoration="none" x="275.427978515625" y="337.5">Family</text></g></g><g transform="translate(-22,-54) scale(1,1)"><g><path fill="none" stroke="none"/><text fill="#000000" stroke="none" font-family="Arial" font-size="13px" font-style="normal" font-weight="normal" text-decoration="none" x="205" y="361">PK</text></g></g><g transform="translate(-22,-54) scale(1,1)"><g><path fill="none" stroke="none"/><text fill="#000000" stroke="none" font-family="Arial" font-size="13px" font-style="normal" font-weight="normal" text-decoration="none" x="233.05908203125" y="361">Id</text></g></g><g transform="translate(-22,-54) scale(1,1)"><g><path fill="none" stroke="none"/><text fill="#000000" stroke="none" font-family="Arial" font-size="13px" font-style="normal" font-weight="normal" text-decoration="none" x="297.97900390625" y="361">INTEGER</text></g></g><g transform="translate(-22,-54) scale(1,1)"><g><path fill="none" stroke="none"/><text fill="#000000" stroke="none" font-family="Arial" font-size="13px" font-style="normal" font-weight="normal" text-decoration="none" x="205" y="360.5"></text></g></g><g transform="translate(-22,-54) scale(1,1)"><g><path fill="none" stroke="none"/><text fill="#000000" stroke="none" font-family="Arial" font-size="13px" font-style="normal" font-weight="normal" text-decoration="none" x="205" y="376"></text></g></g><g transform="translate(-22,-54) scale(1,1)"><g><path fill="none" stroke="none"/><text fill="#000000" stroke="none" font-family="Arial" font-size="13px" font-style="normal" font-weight="normal" text-decoration="none" x="233.05908203125" y="376">Name</text></g></g><g transform="translate(-22,-54) scale(1,1)"><g><path fill="none" stroke="none"/><text fill="#000000" stroke="none" font-family="Arial" font-size="13px" font-style="normal" font-weight="normal" text-decoration="none" x="297.97900390625" y="376">VARCHAR(50)</text></g></g><g transform="translate(-22,-54) scale(1,1)"><g><path fill="none" stroke="none"/><text fill="#000000" stroke="none" font-family="Arial" font-size="13px" font-style="normal" font-weight="normal" text-decoration="none" x="205" y="375.5"></text></g></g><g transform="translate(-22,-54) scale(1,1)"><g><path fill="none" stroke="none"/><text fill="#000000" stroke="none" font-family="Arial" font-size="13px" font-style="normal" font-weight="normal" text-decoration="none" x="205" y="391"></text></g></g><g transform="translate(-22,-54) scale(1,1)"><g><path fill="none" stroke="none"/><text fill="#000000" stroke="none" font-family="Arial" font-size="13px" font-style="normal" font-weight="normal" text-decoration="none" x="233.05908203125" y="391">SciName</text></g></g><g transform="translate(-22,-54) scale(1,1)"><g><path fill="none" stroke="none"/><text fill="#000000" stroke="none" font-family="Arial" font-size="13px" font-style="normal" font-weight="normal" text-decoration="none" x="297.97900390625" y="391">VARCHAR(50)</text></g></g><g transform="translate(-22,-54) scale(1,1)"><g><path fill="none" stroke="none"/><text fill="#000000" stroke="none" font-family="Arial" font-size="13px" font-style="normal" font-weight="normal" text-decoration="none" x="205" y="390.5"></text></g></g><g transform="translate(-22,-54) scale(1,1)"><path fill="none" stroke="#000000" d="M 200 408 L 128 408 M 128 408 A 8 8 0 0 1 120 400 L 120 239" stroke-miterlimit="10"/></g><g transform="translate(-22,-54) scale(1,1)"><path fill="none" stroke="#000000" d="M 120 253 L 127 239" stroke-miterlimit="10"/></g><g transform="translate(-22,-54) scale(1,1)"><path fill="none" stroke="#000000" d="M 120 253 L 113 239" stroke-miterlimit="10"/></g><g transform="translate(-22,-54) scale(1,1)"><path fill="#FFFFFF" stroke="none" d="M 113 261 C 113 257.1340064 116.1340064 254 120 254 C 123.8659936 254 127 257.1340064 127 261 C 127 264.8659936 123.8659936 268 120 268 C 116.1340064 268 113 264.8659936 113 261 Z"/></g><g transform="translate(-22,-54) scale(1,1)"><path fill="none" stroke="#000000" d="M 113 261 C 113 257.1340064 116.1340064 254 120 254 C 123.8659936 254 127 257.1340064 127 261 C 127 264.8659936 123.8659936 268 120 268 C 116.1340064 268 113 264.8659936 113 261 Z" stroke-miterlimit="10"/></g><g transform="translate(-22,-54) scale(1,1)"><path fill="none" stroke="#000000" d="M 193 415 L 193 401" stroke-miterlimit="10"/></g><g transform="translate(-22,-54) scale(1,1)"><path fill="none" stroke="#000000" d="M 186 415 L 186 401" stroke-miterlimit="10"/></g><g transform="translate(-22,-54) scale(1,1)"><g><path fill="none" stroke="none"/><text fill="#000000" stroke="none" font-family="Arial" font-size="13px" font-style="normal" font-weight="normal" text-decoration="none" x="173.5" y="428.5"></text></g></g><g transform="translate(-22,-54) scale(1,1)"><g><path fill="none" stroke="none"/><text fill="#000000" stroke="none" font-family="Arial" font-size="13px" font-style="normal" font-weight="normal" text-decoration="none" x="104.5" y="270.5"></text></g></g><g transform="translate(-22,-54) scale(1,1)"><path fill="none" stroke="#000000" d="M 221 157 L 568 157" stroke-miterlimit="10"/></g><g transform="translate(-22,-54) scale(1,1)"><path fill="none" stroke="#000000" d="M 554 157 L 568 164" stroke-miterlimit="10"/></g><g transform="translate(-22,-54) scale(1,1)"><path fill="none" stroke="#000000" d="M 554 157 L 568 150" stroke-miterlimit="10"/></g><g transform="translate(-22,-54) scale(1,1)"><path fill="#FFFFFF" stroke="none" d="M 539 157 C 539 153.1340064 542.1340064 150 546 150 C 549.8659936 150 553 153.1340064 553 157 C 553 160.8659936 549.8659936 164 546 164 C 542.1340064 164 539 160.8659936 539 157 Z"/></g><g transform="translate(-22,-54) scale(1,1)"><path fill="none" stroke="#000000" d="M 539 157 C 539 153.1340064 542.1340064 150 546 150 C 549.8659936 150 553 153.1340064 553 157 C 553 160.8659936 549.8659936 164 546 164 C 542.1340064 164 539 160.8659936 539 157 Z" stroke-miterlimit="10"/></g><g transform="translate(-22,-54) scale(1,1)"><path fill="none" stroke="#000000" d="M 228 150 L 228 164" stroke-miterlimit="10"/></g><g transform="translate(-22,-54) scale(1,1)"><path fill="none" stroke="#000000" d="M 235 150 L 235 164" stroke-miterlimit="10"/></g><g transform="translate(-22,-54) scale(1,1)"><g><path fill="none" stroke="none"/><text fill="#000000" stroke="none" font-family="Arial" font-size="13px" font-style="normal" font-weight="normal" text-decoration="none" x="245.5" y="148.5"></text></g></g><g transform="translate(-22,-54) scale(1,1)"><g><path fill="none" stroke="none"/><text fill="#000000" stroke="none" font-family="Arial" font-size="13px" font-style="normal" font-weight="normal" text-decoration="none" x="541.5" y="148.5"></text></g></g><g transform="translate(-22,-54) scale(1,1)"><path fill="#ffffff" stroke="none" d="M 459.13232421875 320 L 547.13232421875 320 L 557.13232421875 330 L 557.13232421875 368 L 459.13232421875 368 L 459.13232421875 320"/></g><g transform="translate(-22,-54) scale(1,1)"><path fill="none" stroke="#000000" d="M 459.13232421875 320 L 547.13232421875 320 L 557.13232421875 330 L 557.13232421875 368 L 459.13232421875 368 L 459.13232421875 320 L 459.13232421875 320" stroke-miterlimit="10"/></g><g transform="translate(-22,-54) scale(1,1)"><path fill="none" stroke="#000000" d="M 547.13232421875 320 L 547.13232421875 330 L 557.13232421875 330 L 547.13232421875 320" stroke-miterlimit="10"/></g><g transform="translate(-22,-54) scale(1,1)"><g><path fill="none" stroke="none"/><text fill="#000000" stroke="none" font-family="Arial" font-size="13px" font-style="normal" font-weight="normal" text-decoration="none" x="464.13232421875" y="338">List of bird</text><text fill="#000000" stroke="none" font-family="Arial" font-size="13px" font-style="normal" font-weight="normal" text-decoration="none" x="464.13232421875" y="351">Families</text></g></g><g transform="translate(-22,-54) scale(1,1)"><path fill="none" stroke="#000000" d="M 390 385 L 458 361" stroke-miterlimit="10" stroke-dasharray="3"/></g><g transform="translate(-22,-54) scale(1,1)"><path fill="#ffffff" stroke="none" d="M 291.13232421875 64 L 379.373046875 64 L 389.373046875 74 L 389.373046875 113 L 291.13232421875 113 L 291.13232421875 64"/></g><g transform="translate(-22,-54) scale(1,1)"><path fill="none" stroke="#000000" d="M 291.13232421875 64 L 379.373046875 64 L 389.373046875 74 L 389.373046875 113 L 291.13232421875 113 L 291.13232421875 64 L 291.13232421875 64" stroke-miterlimit="10"/></g><g transform="translate(-22,-54) scale(1,1)"><path fill="none" stroke="#000000" d="M 379.373046875 64 L 379.373046875 74 L 389.373046875 74 L 379.373046875 64" stroke-miterlimit="10"/></g><g transform="translate(-22,-54) scale(1,1)"><g><path fill="none" stroke="none"/><text fill="#000000" stroke="none" font-family="Arial" font-size="13px" font-style="normal" font-weight="normal" text-decoration="none" x="296.13232421875" y="82">List of</text><text fill="#000000" stroke="none" font-family="Arial" font-size="13px" font-style="normal" font-weight="normal" text-decoration="none" x="296.13232421875" y="95">photographed</text><text fill="#000000" stroke="none" font-family="Arial" font-size="13px" font-style="normal" font-weight="normal" text-decoration="none" x="296.13232421875" y="108">birds</text></g></g><g transform="translate(-22,-54) scale(1,1)"><path fill="none" stroke="#000000" d="M 222 123 L 290 103" stroke-miterlimit="10" stroke-dasharray="3"/></g><g transform="translate(-22,-54) scale(1,1)"><path fill="#ffffff" stroke="none" d="M 776 320 L 864 320 L 874 330 L 874 368 L 776 368 L 776 320"/></g><g transform="translate(-22,-54) scale(1,1)"><path fill="none" stroke="#000000" d="M 776 320 L 864 320 L 874 330 L 874 368 L 776 368 L 776 320 L 776 320" stroke-miterlimit="10"/></g><g transform="translate(-22,-54) scale(1,1)"><path fill="none" stroke="#000000" d="M 864 320 L 864 330 L 874 330 L 864 320" stroke-miterlimit="10"/></g><g transform="translate(-22,-54) scale(1,1)"><g><path fill="none" stroke="none"/><text fill="#000000" stroke="none" font-family="Arial" font-size="13px" font-style="normal" font-weight="normal" text-decoration="none" x="781" y="338">List of images</text></g></g><g transform="translate(-22,-54) scale(1,1)"><path fill="none" stroke="#000000" d="M 753 256 L 804 319" stroke-miterlimit="10" stroke-dasharray="3"/></g></g></svg>